<?xml version="1.0" standalone="no"?>
<!DOCTYPE svg PUBLIC "-//W3C//DTD SVG 20010904//EN"
 "http://www.w3.org/TR/2001/REC-SVG-20010904/DTD/svg10.dtd">
<svg version="1.0" xmlns="http://www.w3.org/2000/svg"
 width="610.000000pt" height="610.000000pt" viewBox="0 0 610.000000 610.000000"
 preserveAspectRatio="xMidYMid meet">
<metadata>
Created by potrace 1.14, written by Peter Selinger 2001-2017
</metadata>
<g transform="translate(0.000000,610.000000) scale(0.100000,-0.100000)"
fill="#000000" stroke="none">
<path d="M2858 6095 c-2 -2 -37 -6 -78 -9 -297 -23 -667 -117 -950 -241 -317
-140 -711 -399 -777 -512 -104 -178 -9 -406 186 -448 32 -7 231 -13 479 -14
l93 -1 -44 -82 c-91 -170 -256 -476 -307 -573 -29 -55 -60 -113 -70 -130 -9
-16 -43 -79 -75 -140 -32 -60 -65 -123 -75 -140 -9 -16 -41 -75 -70 -130 -46
-87 -173 -325 -300 -561 -50 -93 -54 -125 -20 -162 25 -27 79 -29 108 -4 12 9
50 71 85 137 35 66 85 161 112 210 26 50 76 142 110 205 34 63 86 160 115 215
29 55 65 123 80 150 15 28 49 91 75 140 26 50 62 117 80 150 18 33 56 105 85
160 29 55 61 114 70 130 10 17 33 59 51 95 l34 65 5 -852 c6 -945 0 -878 71
-889 29 -5 41 -1 65 19 l29 25 1 889 c1 488 2 889 3 891 1 1 52 -64 114 -146
61 -81 181 -239 266 -351 85 -111 181 -226 212 -255 76 -68 167 -121 259 -150
90 -29 137 -35 253 -37 48 -1 87 -4 88 -8 7 -41 3 -243 -5 -248 -5 -4 -53 -8
-106 -9 -120 -3 -183 -27 -240 -91 -70 -80 -67 -43 -67 -900 -1 -727 -2 -773
-19 -802 -19 -32 -58 -51 -105 -51 -72 0 -107 -87 -56 -138 21 -20 34 -24 82
-23 106 1 193 60 239 161 20 44 20 62 21 825 1 727 2 782 18 806 26 39 63 50
158 47 l84 -3 0 -978 0 -979 28 -24 c43 -37 104 -26 126 23 8 17 11 198 11
616 -1 326 -1 762 0 970 l0 377 106 0 c111 0 164 -14 181 -48 4 -9 10 -366 13
-792 l5 -775 27 -51 c54 -103 152 -164 263 -164 122 0 220 60 277 170 23 44
23 50 28 445 5 399 5 400 28 433 43 59 84 72 235 72 l134 0 0 -598 c0 -416 4
-604 11 -619 18 -32 66 -48 102 -33 17 7 36 22 42 33 7 14 11 207 11 619 l0
598 139 0 c174 0 205 -11 253 -84 18 -27 19 -55 21 -435 1 -451 0 -444 69
-513 36 -36 69 -52 125 -62 14 -3 26 -5 27 -5 5 -2 -109 -165 -161 -231 -110
-141 -305 -344 -423 -440 -487 -398 -1016 -612 -1643 -665 -115 -10 -414 -4
-520 10 -347 46 -634 132 -930 280 -785 391 -1364 1108 -1564 1938 -19 78 -38
165 -42 192 -4 28 -8 52 -9 55 -1 3 -5 41 -9 85 -4 44 -10 91 -12 105 -7 37
-6 356 0 425 6 59 10 91 22 190 12 101 55 296 90 411 57 191 100 298 190 479
46 94 84 175 84 182 0 26 -23 61 -47 72 -61 28 -92 3 -162 -129 -154 -292
-273 -660 -317 -979 -3 -25 -8 -57 -10 -71 -24 -156 -24 -592 1 -740 2 -14 6
-43 10 -65 5 -38 19 -119 30 -175 53 -278 205 -659 370 -932 54 -88 197 -294
233 -335 9 -10 46 -52 81 -93 525 -613 1297 -1011 2071 -1067 119 -9 391 -9
490 1 73 6 91 8 195 22 85 10 274 53 401 89 688 200 1278 634 1685 1240 46 69
54 87 57 137 4 51 1 64 -22 99 -29 43 -91 78 -138 79 -57 0 -58 7 -58 430 0
428 -3 453 -63 532 -39 52 -114 104 -170 119 -23 6 -109 11 -192 11 l-151 1
-1 113 c-1 63 2 114 5 115 4 1 77 2 163 4 145 2 160 4 215 29 74 34 128 86
162 156 26 53 27 62 30 247 4 219 -5 272 -61 345 -39 52 -113 104 -170 119
-45 12 -717 15 -772 3 -114 -24 -219 -133 -241 -250 -4 -21 -7 -115 -7 -209 1
-226 24 -293 128 -373 66 -51 115 -63 255 -66 l125 -3 1 -115 1 -114 -151 -2
c-82 -1 -166 -7 -185 -13 -56 -18 -113 -57 -154 -108 -67 -83 -69 -98 -70
-515 0 -321 -2 -377 -16 -406 -47 -98 -181 -104 -235 -10 -20 34 -21 52 -21
795 l-1 761 -27 56 c-55 113 -127 149 -301 153 -67 2 -124 4 -128 4 -5 1 -8
59 -8 129 l0 129 262 1 261 1 24 24 c33 33 34 81 1 114 l-25 25 -262 -1 -261
0 2 171 3 172 35 4 c19 2 68 19 108 38 119 54 239 192 245 280 2 24 -2 29 -23
29 -95 2 -237 -51 -309 -115 -18 -16 -34 -30 -35 -30 -1 0 -2 44 -3 98 -2 107
-28 192 -79 259 -30 40 -38 36 -78 -36 -41 -75 -56 -138 -57 -228 0 -46 -3
-83 -5 -83 -3 0 -19 13 -36 29 -62 57 -199 111 -285 111 -54 0 -55 -13 -11
-101 59 -119 193 -225 309 -244 22 -4 43 -14 47 -23 5 -10 8 -87 8 -172 l-1
-155 -85 -1 c-113 -1 -199 18 -288 62 -92 47 -153 106 -277 271 -55 72 -182
240 -282 372 -101 132 -183 242 -183 244 0 2 113 2 250 0 l250 -4 25 27 c32
34 32 75 1 111 l-24 27 -283 3 c-156 2 -289 5 -294 7 -7 2 -10 93 -9 257 0
140 -3 265 -8 278 -20 55 -91 69 -133 26 l-25 -24 0 -268 0 -269 -172 2 c-443
6 -415 4 -450 28 -73 48 -85 135 -27 201 44 50 185 152 364 263 45 27 319 170
330 171 3 0 21 7 41 16 331 138 737 219 1104 219 85 0 297 -12 350 -19 207
-30 374 -68 550 -126 867 -286 1555 -975 1838 -1839 39 -118 69 -224 78 -280
3 -14 9 -41 14 -60 5 -19 12 -60 15 -90 4 -30 8 -57 10 -60 2 -3 6 -39 10 -80
3 -41 8 -87 11 -102 12 -77 5 -452 -11 -558 -2 -14 -7 -49 -10 -79 -4 -30 -9
-63 -11 -75 -2 -12 -7 -34 -10 -51 -16 -90 -68 -285 -103 -390 -22 -66 -41
-132 -41 -146 0 -57 65 -92 120 -64 22 11 34 33 63 117 94 272 143 498 164
758 14 172 8 524 -11 640 -2 14 -7 48 -11 75 -5 42 -13 84 -40 215 -36 174
-119 418 -212 620 -30 66 -162 303 -203 365 -192 294 -452 572 -735 787 -396
301 -914 513 -1410 578 -44 6 -96 13 -115 16 -37 6 -486 14 -492 9z m2319
-2367 c53 -25 83 -72 87 -136 l2 -49 -461 1 -460 1 2 48 c2 62 29 107 81 133
40 21 55 22 374 22 312 0 336 -1 375 -20z m84 -362 c10 -82 -18 -142 -81 -174
-45 -22 -48 -23 -390 -20 -343 3 -345 3 -378 26 -43 31 -70 87 -67 137 1 22 3
40 4 41 0 0 206 1 456 1 321 0 455 -3 456 -11z"/>
<path d="M3220 5281 c-80 -25 -149 -88 -181 -167 -20 -48 -27 -56 -63 -66
-147 -43 -231 -182 -190 -317 15 -52 30 -68 65 -75 30 -5 58 7 40 18 -21 14
-51 85 -51 123 1 88 75 174 163 188 62 11 72 19 85 73 33 127 164 197 286 151
77 -29 118 -83 140 -181 5 -22 13 -28 44 -33 74 -12 113 -27 148 -57 84 -74
90 -165 18 -265 -16 -23 -16 -23 17 -23 47 0 57 9 78 66 54 140 -21 279 -176
329 -64 21 -68 24 -82 66 -20 60 -102 141 -165 162 -51 18 -132 21 -176 8z"/>
<path d="M5340 4259 c-116 -41 -135 -45 -285 -54 -216 -13 -257 -16 -415 -30
-256 -24 -353 -53 -411 -127 -31 -38 -55 -95 -46 -105 3 -3 61 13 129 35 184
60 207 64 408 68 237 4 337 11 429 30 143 30 186 54 260 149 60 76 56 78 -69
34z"/>
<path d="M721 2773 c-22 -4 -23 -8 -17 -53 6 -44 5 -48 -16 -53 -13 -3 -89
-18 -170 -33 -133 -25 -148 -30 -148 -49 1 -50 7 -50 189 -13 109 22 171 31
171 24 0 -6 5 -27 10 -48 10 -33 13 -36 38 -29 32 9 33 18 8 141 -21 104 -25
120 -34 119 -4 -1 -18 -4 -31 -6z"/>
<path d="M778 2493 c-19 -5 -21 -15 -12 -50 7 -26 12 -27 48 -14 21 9 23 14
17 38 -7 28 -21 35 -53 26z"/>
<path d="M620 2448 c-36 -11 -95 -28 -132 -39 -71 -21 -74 -23 -59 -62 l9 -24
139 40 c76 22 140 41 141 43 9 7 -11 64 -21 63 -7 0 -41 -10 -77 -21z"/>
<path d="M814 2328 c-7 -22 16 -48 43 -48 17 0 16 -11 -2 -46 -11 -22 -12 -30
-2 -36 28 -18 45 -7 63 39 11 27 21 51 22 56 3 6 -98 57 -113 57 -2 0 -7 -10
-11 -22z"/>
<path d="M596 2286 c-73 -28 -106 -64 -106 -115 0 -47 35 -102 72 -112 15 -4
29 -4 32 -1 15 14 4 55 -20 76 -30 25 -28 53 5 73 18 11 22 8 41 -44 36 -98
33 -95 87 -68 79 38 97 70 79 142 -9 41 -54 73 -98 72 -18 0 -59 -10 -92 -23z
m132 -80 c9 -43 -51 -64 -62 -22 -3 13 -9 31 -12 39 -7 20 25 28 51 12 11 -7
21 -20 23 -29z"/>
<path d="M950 2251 c0 -5 -3 -16 -6 -24 -4 -11 10 -21 52 -36 59 -23 67 -21
78 16 6 20 1 24 -45 37 -60 18 -79 20 -79 7z"/>
<path d="M708 2004 l-127 -66 15 -32 16 -32 99 51 c80 40 102 48 116 39 10 -6
18 -22 18 -35 0 -19 -16 -32 -90 -71 -49 -26 -94 -49 -99 -51 -5 -1 -1 -17 8
-35 l17 -33 108 57 c113 60 142 88 135 134 -2 14 -18 37 -36 53 -18 15 -27 27
-20 27 9 0 8 8 -3 30 -9 17 -19 30 -23 30 -4 -1 -64 -30 -134 -66z"/>
<path d="M915 1774 c-53 -27 -136 -95 -147 -119 -15 -34 -2 -73 33 -94 l31
-19 -32 -17 c-40 -21 -65 -5 -56 36 7 34 -35 69 -60 48 -38 -31 1 -130 61
-155 46 -19 68 -10 216 91 149 101 145 97 124 128 -11 17 -22 24 -32 20 -13
-5 -15 -2 -10 11 8 21 -16 71 -38 80 -27 10 -58 7 -90 -10z m75 -75 c16 -30 8
-43 -52 -83 -59 -40 -75 -44 -93 -19 -18 25 -4 46 58 88 60 41 72 43 87 14z"/>
<path d="M1283 1568 c-23 -30 -22 -38 6 -67 l29 -30 -71 -70 c-40 -38 -98 -94
-129 -124 l-58 -54 25 -23 25 -24 31 30 c17 16 75 70 128 121 l96 92 35 -34
35 -34 22 23 23 24 -88 91 c-48 50 -90 91 -94 91 -3 0 -10 -6 -15 -12z"/>
<path d="M1315 1208 c-112 -128 -111 -125 -89 -149 9 -10 21 -19 26 -19 5 0
28 21 51 47 102 113 118 122 156 84 16 -16 21 -17 45 -4 14 7 26 18 26 23 0
16 -29 38 -60 45 -17 4 -27 11 -24 16 7 12 -24 49 -40 49 -6 -1 -47 -42 -91
-92z"/>
<path d="M1506 1065 c-80 -112 -91 -151 -53 -189 15 -15 37 -26 52 -26 14 0
24 -4 21 -9 -6 -9 21 -37 40 -43 10 -3 109 125 166 214 17 25 17 27 -7 42 -32
21 -37 20 -55 -8 -42 -68 -103 -148 -116 -153 -20 -8 -54 25 -47 45 6 17 52
85 100 149 l24 31 -29 21 -29 20 -67 -94z"/>
<path d="M4453 1040 c-13 -5 -31 -23 -42 -40 -12 -20 -20 -27 -23 -19 -4 11
-10 10 -31 -4 -15 -10 -27 -22 -27 -27 0 -5 34 -63 76 -129 l76 -121 28 17
c29 16 30 32 5 63 -26 33 -85 139 -85 153 0 22 26 40 48 33 11 -4 42 -44 71
-91 28 -46 55 -86 59 -89 5 -3 20 3 34 12 l26 17 -58 95 c-33 52 -74 105 -91
118 -35 24 -35 24 -66 12z"/>
<path d="M4084 1013 c-3 -10 -12 -35 -20 -57 -8 -21 -14 -40 -12 -41 2 -1 13
-7 25 -14 19 -10 23 -8 33 24 6 19 13 35 15 35 2 0 16 -5 32 -11 23 -8 30 -7
40 7 20 27 17 31 -42 53 -67 25 -64 25 -71 4z"/>
<path d="M1787 948 c-14 -24 -46 -81 -71 -128 l-47 -84 23 -18 c13 -10 27 -16
32 -15 8 3 47 67 87 144 25 48 35 54 67 42 23 -9 31 -46 13 -65 -4 -5 -27 -44
-50 -86 l-42 -77 26 -17 c22 -15 28 -15 40 -3 21 22 106 185 111 214 9 49 -34
91 -88 87 -19 -2 -26 2 -22 11 3 8 -6 18 -21 25 -34 16 -31 18 -58 -30z"/>
<path d="M3916 897 c-14 -10 -15 -18 -7 -40 12 -31 12 -31 46 -15 20 9 25 17
21 32 -3 12 -6 24 -6 29 0 12 -35 8 -54 -6z"/>
<path d="M4134 856 c-43 -43 -44 -79 -5 -162 36 -77 65 -104 109 -104 66 0
116 38 124 95 2 16 -3 20 -29 21 -23 1 -33 -4 -36 -17 -3 -10 -17 -24 -32 -31
-25 -11 -29 -10 -47 12 l-20 25 71 32 72 33 -26 49 c-30 61 -58 81 -108 81
-31 0 -46 -7 -73 -34z m97 -36 c31 -17 23 -44 -17 -59 -19 -7 -38 -11 -40 -8
-13 12 -10 43 4 60 18 20 26 21 53 7z"/>
<path d="M3810 862 c-35 -5 -40 -12 -44 -63 -2 -24 -7 -80 -11 -124 -4 -44 -8
-82 -10 -83 -2 -2 -36 46 -75 106 -71 110 -71 110 -102 101 -17 -4 -33 -10
-35 -12 -2 -3 10 -58 28 -123 17 -66 32 -126 34 -134 2 -8 11 -45 20 -82 17
-65 18 -68 44 -61 14 3 28 8 30 10 3 2 -9 57 -25 123 -17 65 -27 117 -23 115
3 -3 28 -38 55 -80 36 -57 54 -75 71 -75 17 0 23 7 28 33 7 42 12 91 15 147
l2 45 14 -55 c8 -30 24 -90 35 -132 l21 -76 29 10 c16 5 29 13 29 16 -1 12
-99 394 -102 396 -2 1 -14 0 -28 -2z"/>
<path d="M2063 821 c-28 -26 -83 -162 -83 -205 0 -44 40 -80 82 -74 34 5 37
-13 7 -43 -27 -27 -44 -19 -65 29 -1 2 -14 5 -29 8 -33 6 -45 -9 -36 -44 10
-36 51 -63 103 -69 67 -8 86 15 159 196 61 149 62 154 43 168 -10 8 -27 12
-37 9 -10 -2 -28 6 -42 20 -29 29 -73 31 -102 5z m96 -69 c6 -12 4 -34 -10
-71 -29 -83 -61 -110 -90 -75 -10 13 -9 25 7 72 28 83 70 117 93 74z"/>
<path d="M2496 813 c-3 -10 -8 -38 -11 -63 -3 -25 -8 -52 -11 -61 -2 -9 -11
-52 -19 -95 -23 -125 -25 -138 -29 -150 -6 -17 7 -32 34 -35 22 -4 25 1 37 51
7 30 15 77 18 104 13 96 21 96 35 1 7 -50 13 -95 13 -102 0 -14 50 -29 54 -16
7 16 103 178 103 172 0 -7 -36 -193 -45 -236 -5 -20 -1 -23 29 -23 36 0 34 -4
52 98 2 12 6 32 8 45 2 12 14 75 27 139 12 65 21 120 18 122 -2 2 -18 7 -35
10 -31 7 -32 6 -97 -110 -69 -124 -70 -124 -82 -29 -22 179 -24 185 -45 185
-10 0 -25 3 -33 6 -9 3 -17 -2 -21 -13z"/>
<path d="M2933 771 c-47 -41 -51 -52 -28 -71 13 -11 20 -9 40 10 l25 24 28
-27 c28 -27 29 -27 47 -7 17 19 17 21 -21 62 -21 24 -40 44 -43 45 -3 2 -25
-15 -48 -36z"/>
<path d="M3958 788 c-15 -12 -12 -26 33 -148 27 -74 51 -136 53 -138 2 -1 17
3 34 10 l30 13 -51 138 c-53 140 -63 153 -99 125z"/>
<path d="M2924 639 c-18 -5 -39 -20 -47 -33 -21 -32 -32 -166 -17 -210 20 -62
125 -82 177 -34 25 23 33 59 34 150 1 69 -16 112 -49 122 -37 11 -69 13 -98 5z
m65 -68 c17 -11 17 -137 0 -158 -15 -17 -43 -17 -58 1 -16 19 -8 145 10 157
18 11 30 11 48 0z"/>
<path d="M3228 643 c-35 -5 -78 -49 -79 -82 -5 -171 21 -224 111 -224 54 0 79
11 95 43 20 38 19 39 -12 51 -21 8 -30 6 -48 -11 -26 -25 -51 -26 -64 -2 -9
16 -15 83 -12 129 2 31 45 42 71 18 17 -15 24 -16 45 -7 31 14 31 24 3 56 -23
26 -61 36 -110 29z"/>
<path d="M2919 268 c0 -7 -2 -23 -5 -35 -3 -20 0 -23 31 -23 24 0 35 5 36 15
1 8 2 23 3 33 1 12 -8 18 -31 20 -22 2 -33 -1 -34 -10z"/>
</g>
</svg>
